<svg id="Layer_1" data-name="Layer 1" xmlns="http://www.w3.org/2000/svg" viewBox="0 0 200 120"><defs><style>.cls-1{fill:#ff6b00;}.cls-2{fill:#00216a;}.cls-3{fill:#00a88e;}.cls-4{fill:#007472;}</style></defs><g id="Layer_2" data-name="Layer 2"><g id="Layer_1-2" data-name="Layer 1-2"><path class="cls-1" d="M94.59,73.05A1.56,1.56,0,1,1,93,71.5h0A1.55,1.55,0,0,1,94.59,73.05Zm-.27,0a1.29,1.29,0,1,0-2.58,0,1.29,1.29,0,0,0,2.58,0Zm-.93.19.33.61h-.36l-.28-.54h-.23v.54h-.33V72.26h.54a.54.54,0,0,1,.6.46.07.07,0,0,0,0,0A.49.49,0,0,1,93.39,73.24ZM92.85,73h.21c.17,0,.27-.09.27-.22s-.1-.22-.27-.22h-.21Z"/><path class="cls-1" d="M95.59,55.57H67.16v-12H83.62a12,12,0,0,1,11.95,12h0Z"/><polygon class="cls-2" points="22.92 62.65 22.92 43.61 10.96 43.61 10.96 74.61 35.08 74.61 35.08 62.65 22.92 62.65"/><path class="cls-3" d="M79.11,55.57v12h4.51a12,12,0,0,0,11.95-12H79.11Z"/><path class="cls-2" d="M109.94,65h-3l-.63,1.47h-.61l2.47-5.62h.54l2.45,5.61h-.61Zm-.21-.49-1.27-3-1.28,3Z"/><path class="cls-2" d="M115.76,60.52v5.91h-.51v-.87a1.66,1.66,0,0,1-1.61.94,1.9,1.9,0,0,1-1.92-2,1.94,1.94,0,0,1,1.92-2.09,1.66,1.66,0,0,1,1.61.94V60.52Zm-.54,3.91a1.48,1.48,0,1,0-2.94,0,1.47,1.47,0,1,0,2.94,0Z"/><path class="cls-2" d="M116.63,62.41h.59l1.47,3.38,1.47-3.38h.58l-1.78,4h-.55Z"/><path class="cls-2" d="M124.51,63.9v2.53H124l0-.84a1.59,1.59,0,0,1-1.48.91,1.18,1.18,0,0,1-1.32-1.17c0-.71.65-1.22,1.64-1.22a4.63,4.63,0,0,1,1.17.14V64a1.11,1.11,0,0,0-1-1.18h-.15a1.41,1.41,0,0,0-1.1.44l-.27-.32a2,2,0,0,1,1.47-.56A1.5,1.5,0,0,1,124.51,63.9Zm-.55.74a5,5,0,0,0-1.09-.13c-.69,0-1.14.33-1.14.81s.34.78.9.78A1.4,1.4,0,0,0,124,64.67v0Z"/><path class="cls-2" d="M129.49,63.9v2.53h-.55V64a1.27,1.27,0,0,0-2.53,0v2.42h-.55v-4h.53v.68a1.7,1.7,0,0,1,3.1.81Z"/><path class="cls-2" d="M130.57,64.42a1.94,1.94,0,0,1,1.83-2.07h.23a2,2,0,0,1,1.29.44l-.31.38a1.45,1.45,0,0,0-1-.34,1.47,1.47,0,0,0-1.49,1.61,1.46,1.46,0,0,0,1.5,1.6,1.49,1.49,0,0,0,1.09-.43l.32.38a2.09,2.09,0,0,1-1.45.52A2,2,0,0,1,130.57,64.42Z"/><path class="cls-2" d="M138.45,64.63h-3.19c.07.88.54,1.43,1.33,1.43a1.58,1.58,0,0,0,1.3-.68l.41.24a2,2,0,0,1-1.71.88,2.09,2.09,0,0,1,0-4.16,1.84,1.84,0,0,1,1.87,2Zm-3.19-.39h2.64a1.36,1.36,0,0,0-1.32-1.47c-.77,0-1.27.58-1.32,1.47Z"/><path class="cls-2" d="M143.37,60.52v5.91h-.53l0-.87a1.61,1.61,0,0,1-1.59.94,1.9,1.9,0,0,1-1.93-2,1.94,1.94,0,0,1,1.93-2.09,1.64,1.64,0,0,1,1.59.94V60.52Zm-.55,3.91a1.47,1.47,0,1,0-2.93,0,1.47,1.47,0,1,0,2.93,0Z"/><path class="cls-2" d="M150.3,65h-3l-.63,1.47h-.61l2.45-5.61h.55l2.45,5.61h-.61Zm-.2-.49-1.28-3-1.26,3Z"/><path class="cls-2" d="M156,63.9v2.53h-.55V64a1.15,1.15,0,0,0-1.27-1.17A1.16,1.16,0,0,0,152.89,64v2.42h-.54v-4h.53v.68a1.7,1.7,0,0,1,3.1.81Z"/><path class="cls-2" d="M160.33,63.9v2.53h-.53l0-.84a1.59,1.59,0,0,1-1.48.91A1.18,1.18,0,0,1,157,65.33c0-.71.65-1.22,1.64-1.22a4.63,4.63,0,0,1,1.17.14V64a1.12,1.12,0,0,0-1-1.18h-.15a1.41,1.41,0,0,0-1.1.44l-.25-.32a2,2,0,0,1,1.47-.56A1.5,1.5,0,0,1,160.33,63.9Zm-.55.74a5.09,5.09,0,0,0-1.1-.13c-.68,0-1.13.33-1.13.81s.34.78.9.78a1.38,1.38,0,0,0,1.33-1.43v0Z"/><path class="cls-2" d="M161.69,60.52h.56v5.91h-.55Z"/><path class="cls-2" d="M163.54,68.08l.06-.45a.83.83,0,0,0,.34.07c.34,0,.49-.23.65-.57l.35-.76-1.79-4h.58l1.47,3.36,1.47-3.36h.59l-2.15,4.79c-.25.59-.5,1-1.1,1A1.09,1.09,0,0,1,163.54,68.08Z"/><path class="cls-2" d="M170.38,65.89v.45a2.47,2.47,0,0,1-1,.16,1,1,0,0,1-1.08-1V62.88h-.7v-.47h.7V61.24h.54v1.17h1.45v.46h-1.45v2.42a.69.69,0,0,0,.64.74h.07A2,2,0,0,0,170.38,65.89Z"/><path class="cls-2" d="M171.16,61.05a.37.37,0,0,1,.37-.37.37.37,0,0,1,.37.36.37.37,0,0,1-.37.37.36.36,0,0,1-.37-.35Zm.1,1.37h.54v4h-.54Z"/><path class="cls-2" d="M173,64.42a1.94,1.94,0,0,1,1.83-2.07H175a2,2,0,0,1,1.3.44l-.31.38a1.49,1.49,0,0,0-1-.34A1.61,1.61,0,0,0,175,66a1.48,1.48,0,0,0,1.09-.43l.32.38a2.09,2.09,0,0,1-1.45.52A1.94,1.94,0,0,1,173,64.42Z"/><path class="cls-2" d="M177.2,66.08l.23-.34a1.9,1.9,0,0,0,1.15.32c.57,0,.95-.26.95-.67s-.35-.59-.84-.73l-.43-.12c-.63-.18-1.06-.43-1.06-1s.56-1.17,1.41-1.17a2.35,2.35,0,0,1,1.36.37l-.23.37a2,2,0,0,0-1.1-.3c-.53,0-.88.25-.88.65s.31.53.74.65l.43.13c.61.17,1.18.47,1.18,1.13s-.59,1.16-1.51,1.16A2.08,2.08,0,0,1,177.2,66.08Z"/><path class="cls-2" d="M188,65.89v.45a2.47,2.47,0,0,1-1,.16,1,1,0,0,1-1-.65,1.73,1.73,0,0,1-1.47.65,1.58,1.58,0,0,1-.52-3.1,1.3,1.3,0,0,1-.9-1.26c0-.83.67-1.39,1.68-1.39s1.65.56,1.65,1.41v1h1.45v.44h-1.45v1.65a.69.69,0,0,0,.63.74h.08A2.07,2.07,0,0,0,188,65.89ZM185.94,65V63.64h-1.1a1.23,1.23,0,0,0-1.39,1.2,1.15,1.15,0,0,0,1.11,1.2h.14c.64,0,1.25-.33,1.25-1Zm-1.1-1.81h1.1v-1a1,1,0,0,0-1.1-1,1,1,0,1,0,0,2Z"/><path class="cls-2" d="M110.19,73.08a1.6,1.6,0,0,1-1.8,1.56h-2.22V69h2.08c1,0,1.68.57,1.68,1.42A1.3,1.3,0,0,1,109,71.7,1.4,1.4,0,0,1,110.19,73.08Zm-3.45-1.56h1.39c.73,0,1.2-.4,1.2-1s-.49-1-1.23-1h-1.36Zm2.85,1.56A1.13,1.13,0,0,0,108.32,72h-1.58v2.16h1.58a1.12,1.12,0,0,0,1.27-1.08Z"/><path class="cls-2" d="M114.83,70.64v4h-.52l0-.66a1.63,1.63,0,0,1-2.25.48,1.6,1.6,0,0,1-.74-1.29V70.64h.55v2.42a1.22,1.22,0,1,0,2.43,0V70.64Z"/><path class="cls-2" d="M116,74.29l.23-.34a1.9,1.9,0,0,0,1.15.32c.57,0,1-.26,1-.67s-.36-.59-.84-.73l-.43-.13c-.63-.17-1.06-.42-1.06-1s.56-1.17,1.4-1.17a2.45,2.45,0,0,1,1.37.38l-.23.37a2,2,0,0,0-1.1-.29c-.53,0-.88.25-.88.64s.3.54.74.66l.43.13c.61.17,1.18.47,1.18,1.13s-.59,1.16-1.51,1.16A2.09,2.09,0,0,1,116,74.29Z"/><path class="cls-2" d="M120,69.26a.37.37,0,0,1,.33-.4.36.36,0,0,1,.4.33.08.08,0,0,1,0,.07.38.38,0,0,1-.4.34A.36.36,0,0,1,120,69.26Zm.08,1.38h.55v4H120Z"/><path class="cls-2" d="M125.62,72.11v2.52h-.55V72.22a1.14,1.14,0,0,0-1.26-1.17,1.17,1.17,0,0,0-1.28,1.17v2.42H122v-4h.53v.67a1.57,1.57,0,0,1,1.45-.75A1.5,1.5,0,0,1,125.62,72.11Z"/><path class="cls-2" d="M130.49,72.83h-3.2c.07.89.54,1.44,1.33,1.44a1.58,1.58,0,0,0,1.3-.68l.42.23a2,2,0,0,1-1.72.89,1.9,1.9,0,0,1-1.91-2.09,1.87,1.87,0,0,1,1.9-2.07,1.84,1.84,0,0,1,1.88,2A2.09,2.09,0,0,1,130.49,72.83Zm-3.2-.38h2.64c0-.88-.54-1.47-1.31-1.47S127.34,71.55,127.29,72.45Z"/><path class="cls-2" d="M131.37,74.29l.23-.34a1.88,1.88,0,0,0,1.15.32c.57,0,.95-.26.95-.67s-.36-.59-.84-.73l-.43-.13c-.63-.17-1.07-.42-1.07-1s.57-1.17,1.41-1.17a2.45,2.45,0,0,1,1.37.38l-.24.37a2,2,0,0,0-1.09-.29c-.53,0-.88.25-.88.64s.31.54.74.66l.44.13c.6.17,1.15.47,1.15,1.13s-.58,1.16-1.5,1.16A2.12,2.12,0,0,1,131.37,74.29Z"/><path class="cls-2" d="M135.15,74.29l.23-.34a1.88,1.88,0,0,0,1.15.32c.57,0,.95-.26.95-.67s-.36-.59-.84-.73l-.43-.13c-.63-.17-1.06-.42-1.06-1s.56-1.17,1.4-1.17a2.45,2.45,0,0,1,1.37.38l-.24.37a2,2,0,0,0-1.09-.29c-.53,0-.88.25-.88.64s.31.54.74.66l.43.13c.61.17,1.16.47,1.16,1.13s-.59,1.16-1.51,1.16A2.09,2.09,0,0,1,135.15,74.29Z"/><path class="cls-2" d="M141.11,71.81A2.69,2.69,0,0,1,144,69a2.74,2.74,0,0,1,2.11.91l-.36.37a2.22,2.22,0,0,0-1.73-.8,2.41,2.41,0,0,0,0,4.8,2.24,2.24,0,0,0,1.87-1l.39.37A2.79,2.79,0,0,1,144,74.71,2.71,2.71,0,0,1,141.11,71.81Z"/><path class="cls-2" d="M147,72.64a2.05,2.05,0,1,1,4.1,0,2.06,2.06,0,0,1-4.1.23Zm3.53,0a1.48,1.48,0,1,0-1.47,1.6A1.46,1.46,0,0,0,150.5,72.64Z"/><path class="cls-2" d="M155.82,72.11v2.52h-.54V72.22A1.15,1.15,0,0,0,154,71.05a1.16,1.16,0,0,0-1.27,1.17v2.42h-.54v-4h.52v.67a1.56,1.56,0,0,1,1.45-.75A1.5,1.5,0,0,1,155.82,72.11Z"/><path class="cls-2" d="M156.94,74.29l.23-.34a1.88,1.88,0,0,0,1.15.32c.57,0,1-.26,1-.67s-.36-.59-.84-.73l-.43-.13c-.63-.17-1.06-.42-1.06-1s.56-1.17,1.4-1.17a2.45,2.45,0,0,1,1.37.38l-.23.37a2,2,0,0,0-1.1-.29c-.53,0-.88.25-.88.64s.31.54.74.66l.43.13c.61.17,1.16.47,1.16,1.13s-.58,1.16-1.5,1.16A2.12,2.12,0,0,1,156.94,74.29Z"/><path class="cls-2" d="M164.44,70.64v4h-.52V74a1.63,1.63,0,0,1-2.25.48,1.61,1.61,0,0,1-.75-1.29V70.64h.55v2.42a1.22,1.22,0,0,0,2.44,0V70.64Z"/><path class="cls-2" d="M165.86,68.73h.55v5.91h-.55Z"/><path class="cls-2" d="M170.09,74.1v.44a2.31,2.31,0,0,1-1,.17,1,1,0,0,1-1.09-1V71.08h-.69v-.44H168V69.46h.55v1.18H170v.45h-1.44v2.42a.69.69,0,0,0,.64.74h.06A2.24,2.24,0,0,0,170.09,74.1Z"/><path class="cls-2" d="M174,72.11v2.52h-.53v-.84a1.61,1.61,0,0,1-1.47.91,1.18,1.18,0,0,1-1.32-1.17c0-.72.65-1.22,1.64-1.22a5.12,5.12,0,0,1,1.17.13v-.27a1.11,1.11,0,0,0-1-1.18h-.16a1.45,1.45,0,0,0-1.1.45l-.25-.33a2,2,0,0,1,1.47-.56A1.49,1.49,0,0,1,174,72.11Zm-.55.74a4.53,4.53,0,0,0-1.1-.13c-.68,0-1.13.33-1.13.81s.34.77.9.77a1.36,1.36,0,0,0,1.33-1.42Z"/><path class="cls-2" d="M178.94,72.11v2.52h-.53V72.22a1.15,1.15,0,0,0-1.27-1.17,1.16,1.16,0,0,0-1.27,1.17v2.42h-.55v-4h.53v.67a1.56,1.56,0,0,1,1.45-.75A1.5,1.5,0,0,1,178.94,72.11Z"/><path class="cls-2" d="M180,72.63a2,2,0,0,1,1.83-2.08h.23a2,2,0,0,1,1.29.44l-.31.38a1.45,1.45,0,0,0-1-.34,1.47,1.47,0,0,0-1.49,1.61,1.45,1.45,0,0,0,1.49,1.6,1.5,1.5,0,0,0,1.1-.43l.31.37a2,2,0,0,1-1.44.53A2,2,0,0,1,180,72.63Z"/><path class="cls-2" d="M184.36,76.29l.06-.45a.83.83,0,0,0,.34.07c.35,0,.49-.23.65-.57l.35-.76L184,70.64h.59L186,74l1.45-3.35h.59l-2.15,4.79c-.24.58-.49,1-1.09,1A1.29,1.29,0,0,1,184.36,76.29Z"/><path class="cls-2" d="M41.11,43.61H31.42v12H41.78v19h12v-19h-.66a12,12,0,0,1-12-12Z"/><path class="cls-1" d="M63.57,43.61v12H53.07a12,12,0,0,1-12-12H63.57Z"/><path class="cls-4" d="M79.11,55.57v19h-12V67.53A12,12,0,0,1,79.11,55.57Z"/></g></g></svg>